<svg width="15" height="11" viewBox="0 0 15 11" fill="none" xmlns="http://www.w3.org/2000/svg">
<path d="M13.9859 0C14.271 0 14.5113 0.0986329 14.7066 0.295898C14.9019 0.493201 14.9996 0.736353 14.9996 1.02441C14.9995 1.3115 14.9018 1.55377 14.7066 1.75098L5.86969 10.6787C5.75565 10.7939 5.63802 10.8769 5.51617 10.9258C5.39452 10.9754 5.26846 10.9999 5.13824 11C5.00784 11 4.88115 10.9755 4.75933 10.9258C4.63748 10.8769 4.51986 10.7939 4.40582 10.6787L0.279842 6.51074C0.0847462 6.31348 -0.00804265 6.0625 0.0005456 5.75879C0.00844378 5.45462 0.109398 5.20396 0.304257 5.00684C0.499455 4.80961 0.743918 4.71004 1.03668 4.70996C1.32959 4.70996 1.57383 4.80953 1.7691 5.00684L5.18707 8.45996L13.2671 0.295898C13.4623 0.0988092 13.7018 4.46615e-05 13.9859 0Z" fill="#122730"/>
</svg>
